<mxfile host="app.diagrams.net" modified="2023-12-18T02:44:01.713Z" agent="Mozilla/5.0 (Macintosh; Intel Mac OS X 10_15_7) AppleWebKit/537.36 (KHTML, like Gecko) Chrome/117.0.0.0 Safari/537.36" version="22.1.11" etag="pbPJGyxdDsbz9PUeBVfT" type="github">
  <diagram name="Page-1" id="u3bkAQnzfsW4199rKpse">
    <mxGraphModel>
      <root>
        <mxCell id="0" />
        <mxCell id="1" parent="0" />
      </root>
    </mxGraphModel>
  </diagram>
</mxfile>
